<mxfile host="app.diagrams.net" agent="Mozilla/5.0 (Windows NT 10.0; Win64; x64) AppleWebKit/537.36 (KHTML, like Gecko) Chrome/128.0.0.0 Safari/537.36" version="24.7.7">
  <diagram name="Page-1" id="c4acf3e9-155e-7222-9cf6-157b1a14988f">
    <mxGraphModel dx="2100" dy="1044" grid="1" gridSize="10" guides="1" tooltips="1" connect="1" arrows="1" fold="1" page="1" pageScale="1" pageWidth="850" pageHeight="1100" background="none" math="0" shadow="0">
      <root>
        <mxCell id="0" />
        <mxCell id="1" parent="0" />
        <mxCell id="A4EMvkAZ6734JRMSgYeZ-64" value="" style="group" vertex="1" connectable="0" parent="1">
          <mxGeometry x="42" y="50" width="766.2" height="940" as="geometry" />
        </mxCell>
        <mxCell id="A4EMvkAZ6734JRMSgYeZ-61" value="" style="group" vertex="1" connectable="0" parent="A4EMvkAZ6734JRMSgYeZ-64">
          <mxGeometry y="90" width="766.2" height="850" as="geometry" />
        </mxCell>
        <mxCell id="A4EMvkAZ6734JRMSgYeZ-1" value="&lt;font style=&quot;font-size: 14px;&quot;&gt;LogIn&lt;/font&gt;" style="swimlane;fontStyle=1;align=center;verticalAlign=top;childLayout=stackLayout;horizontal=1;startSize=26;horizontalStack=0;resizeParent=1;resizeParentMax=0;resizeLast=0;collapsible=1;marginBottom=0;whiteSpace=wrap;html=1;" vertex="1" parent="A4EMvkAZ6734JRMSgYeZ-61">
          <mxGeometry x="311.26875000000007" width="191.55000000000004" height="131.35211267605638" as="geometry" />
        </mxCell>
        <mxCell id="A4EMvkAZ6734JRMSgYeZ-2" value="- name: String&lt;div style=&quot;font-size: 14px;&quot;&gt;- collegeName: String&lt;/div&gt;&lt;div style=&quot;font-size: 14px;&quot;&gt;- PRNno: Int&lt;/div&gt;" style="text;strokeColor=none;fillColor=none;align=left;verticalAlign=top;spacingLeft=4;spacingRight=4;overflow=hidden;rotatable=0;points=[[0,0.5],[1,0.5]];portConstraint=eastwest;whiteSpace=wrap;html=1;fontSize=14;" vertex="1" parent="A4EMvkAZ6734JRMSgYeZ-1">
          <mxGeometry y="26" width="191.55000000000004" height="64.64788732394368" as="geometry" />
        </mxCell>
        <mxCell id="A4EMvkAZ6734JRMSgYeZ-3" value="" style="line;strokeWidth=1;fillColor=none;align=left;verticalAlign=middle;spacingTop=-1;spacingLeft=3;spacingRight=3;rotatable=0;labelPosition=right;points=[];portConstraint=eastwest;strokeColor=inherit;" vertex="1" parent="A4EMvkAZ6734JRMSgYeZ-1">
          <mxGeometry y="90.64788732394368" width="191.55000000000004" height="9.577464788732396" as="geometry" />
        </mxCell>
        <mxCell id="A4EMvkAZ6734JRMSgYeZ-4" value="+ logIn()" style="text;strokeColor=none;fillColor=none;align=left;verticalAlign=top;spacingLeft=4;spacingRight=4;overflow=hidden;rotatable=0;points=[[0,0.5],[1,0.5]];portConstraint=eastwest;whiteSpace=wrap;html=1;fontSize=14;" vertex="1" parent="A4EMvkAZ6734JRMSgYeZ-1">
          <mxGeometry y="100.22535211267608" width="191.55000000000004" height="31.126760563380287" as="geometry" />
        </mxCell>
        <mxCell id="A4EMvkAZ6734JRMSgYeZ-5" value="&lt;font style=&quot;font-size: 14px;&quot;&gt;Certificate&lt;/font&gt;" style="swimlane;fontStyle=1;align=center;verticalAlign=top;childLayout=stackLayout;horizontal=1;startSize=26;horizontalStack=0;resizeParent=1;resizeParentMax=0;resizeLast=0;collapsible=1;marginBottom=0;whiteSpace=wrap;html=1;" vertex="1" parent="A4EMvkAZ6734JRMSgYeZ-61">
          <mxGeometry x="562.678125" width="191.55000000000004" height="186.42253521126761" as="geometry" />
        </mxCell>
        <mxCell id="A4EMvkAZ6734JRMSgYeZ-6" value="- courseName: String&lt;div style=&quot;font-size: 14px;&quot;&gt;- courseCredit: Int&lt;/div&gt;&lt;div style=&quot;font-size: 14px;&quot;&gt;- collegeName: String&lt;/div&gt;" style="text;strokeColor=none;fillColor=none;align=left;verticalAlign=top;spacingLeft=4;spacingRight=4;overflow=hidden;rotatable=0;points=[[0,0.5],[1,0.5]];portConstraint=eastwest;whiteSpace=wrap;html=1;fontSize=14;" vertex="1" parent="A4EMvkAZ6734JRMSgYeZ-5">
          <mxGeometry y="26" width="191.55000000000004" height="64.64788732394366" as="geometry" />
        </mxCell>
        <mxCell id="A4EMvkAZ6734JRMSgYeZ-7" value="" style="line;strokeWidth=1;fillColor=none;align=left;verticalAlign=middle;spacingTop=-1;spacingLeft=3;spacingRight=3;rotatable=0;labelPosition=right;points=[];portConstraint=eastwest;strokeColor=inherit;" vertex="1" parent="A4EMvkAZ6734JRMSgYeZ-5">
          <mxGeometry y="90.64788732394366" width="191.55000000000004" height="9.577464788732394" as="geometry" />
        </mxCell>
        <mxCell id="A4EMvkAZ6734JRMSgYeZ-8" value="+ uploadCertificate()&lt;div style=&quot;font-size: 14px;&quot;&gt;+ submitCertificate()&lt;/div&gt;&lt;div style=&quot;font-size: 14px;&quot;&gt;+ verifyCredits()&lt;/div&gt;&lt;div style=&quot;font-size: 14px;&quot;&gt;+ issueCertificate()&lt;/div&gt;" style="text;strokeColor=none;fillColor=none;align=left;verticalAlign=top;spacingLeft=4;spacingRight=4;overflow=hidden;rotatable=0;points=[[0,0.5],[1,0.5]];portConstraint=eastwest;whiteSpace=wrap;html=1;fontSize=14;" vertex="1" parent="A4EMvkAZ6734JRMSgYeZ-5">
          <mxGeometry y="100.22535211267606" width="191.55000000000004" height="86.19718309859155" as="geometry" />
        </mxCell>
        <mxCell id="A4EMvkAZ6734JRMSgYeZ-9" value="&lt;font style=&quot;font-size: 14px;&quot;&gt;Student&lt;/font&gt;" style="swimlane;fontStyle=1;align=center;verticalAlign=top;childLayout=stackLayout;horizontal=1;startSize=26;horizontalStack=0;resizeParent=1;resizeParentMax=0;resizeLast=0;collapsible=1;marginBottom=0;whiteSpace=wrap;html=1;" vertex="1" parent="A4EMvkAZ6734JRMSgYeZ-61">
          <mxGeometry y="275.3521126760563" width="215.49375" height="270.2253521126761" as="geometry" />
        </mxCell>
        <mxCell id="A4EMvkAZ6734JRMSgYeZ-10" value="- name: String&lt;div style=&quot;font-size: 14px;&quot;&gt;- collegeName: String&lt;/div&gt;&lt;div style=&quot;font-size: 14px;&quot;&gt;- PRNno: Int&lt;/div&gt;&lt;div style=&quot;font-size: 14px;&quot;&gt;- ABCid: Int&lt;/div&gt;" style="text;strokeColor=none;fillColor=none;align=left;verticalAlign=top;spacingLeft=4;spacingRight=4;overflow=hidden;rotatable=0;points=[[0,0.5],[1,0.5]];portConstraint=eastwest;whiteSpace=wrap;html=1;fontSize=14;" vertex="1" parent="A4EMvkAZ6734JRMSgYeZ-9">
          <mxGeometry y="26" width="215.49375" height="76.61971830985917" as="geometry" />
        </mxCell>
        <mxCell id="A4EMvkAZ6734JRMSgYeZ-11" value="" style="line;strokeWidth=1;fillColor=none;align=left;verticalAlign=middle;spacingTop=-1;spacingLeft=3;spacingRight=3;rotatable=0;labelPosition=right;points=[];portConstraint=eastwest;strokeColor=inherit;" vertex="1" parent="A4EMvkAZ6734JRMSgYeZ-9">
          <mxGeometry y="102.61971830985917" width="215.49375" height="9.577464788732396" as="geometry" />
        </mxCell>
        <mxCell id="A4EMvkAZ6734JRMSgYeZ-12" value="&lt;div style=&quot;font-size: 14px;&quot;&gt;+ displayDetails()&lt;/div&gt;&lt;div style=&quot;font-size: 14px;&quot;&gt;+ displayOngoingCourses()&lt;/div&gt;&lt;div style=&quot;font-size: 14px;&quot;&gt;+ displayAvailableCourses()&lt;/div&gt;&lt;div style=&quot;font-size: 14px;&quot;&gt;+ enrollCourses()&lt;/div&gt;+ uploadCertificate()&lt;div style=&quot;font-size: 14px;&quot;&gt;+ submitCertificate()&lt;/div&gt;&lt;div style=&quot;font-size: 14px;&quot;&gt;+ checkCredits()&lt;/div&gt;&lt;div style=&quot;font-size: 14px;&quot;&gt;+ viewCertificatesReceived()&lt;/div&gt;" style="text;strokeColor=none;fillColor=none;align=left;verticalAlign=top;spacingLeft=4;spacingRight=4;overflow=hidden;rotatable=0;points=[[0,0.5],[1,0.5]];portConstraint=eastwest;whiteSpace=wrap;html=1;fontSize=14;" vertex="1" parent="A4EMvkAZ6734JRMSgYeZ-9">
          <mxGeometry y="112.19718309859157" width="215.49375" height="158.02816901408454" as="geometry" />
        </mxCell>
        <mxCell id="A4EMvkAZ6734JRMSgYeZ-13" value="&lt;font style=&quot;font-size: 14px;&quot;&gt;SignUp&lt;/font&gt;" style="swimlane;fontStyle=1;align=center;verticalAlign=top;childLayout=stackLayout;horizontal=1;startSize=26;horizontalStack=0;resizeParent=1;resizeParentMax=0;resizeLast=0;collapsible=1;marginBottom=0;whiteSpace=wrap;html=1;" vertex="1" parent="A4EMvkAZ6734JRMSgYeZ-61">
          <mxGeometry x="11.971875000000002" width="191.55000000000004" height="143.32394366197184" as="geometry" />
        </mxCell>
        <mxCell id="A4EMvkAZ6734JRMSgYeZ-14" value="- name: String&lt;div style=&quot;font-size: 14px;&quot;&gt;- collegeName: String&lt;/div&gt;&lt;div style=&quot;font-size: 14px;&quot;&gt;- PRNno: Int&lt;/div&gt;&lt;div style=&quot;font-size: 14px;&quot;&gt;- ABCid: Int&lt;/div&gt;" style="text;strokeColor=none;fillColor=none;align=left;verticalAlign=top;spacingLeft=4;spacingRight=4;overflow=hidden;rotatable=0;points=[[0,0.5],[1,0.5]];portConstraint=eastwest;whiteSpace=wrap;html=1;fontSize=14;" vertex="1" parent="A4EMvkAZ6734JRMSgYeZ-13">
          <mxGeometry y="26" width="191.55000000000004" height="76.61971830985915" as="geometry" />
        </mxCell>
        <mxCell id="A4EMvkAZ6734JRMSgYeZ-15" value="" style="line;strokeWidth=1;fillColor=none;align=left;verticalAlign=middle;spacingTop=-1;spacingLeft=3;spacingRight=3;rotatable=0;labelPosition=right;points=[];portConstraint=eastwest;strokeColor=inherit;" vertex="1" parent="A4EMvkAZ6734JRMSgYeZ-13">
          <mxGeometry y="102.61971830985915" width="191.55000000000004" height="9.577464788732394" as="geometry" />
        </mxCell>
        <mxCell id="A4EMvkAZ6734JRMSgYeZ-16" value="+ signUp()" style="text;strokeColor=none;fillColor=none;align=left;verticalAlign=top;spacingLeft=4;spacingRight=4;overflow=hidden;rotatable=0;points=[[0,0.5],[1,0.5]];portConstraint=eastwest;whiteSpace=wrap;html=1;fontSize=14;" vertex="1" parent="A4EMvkAZ6734JRMSgYeZ-13">
          <mxGeometry y="112.19718309859155" width="191.55000000000004" height="31.12676056338028" as="geometry" />
        </mxCell>
        <mxCell id="A4EMvkAZ6734JRMSgYeZ-17" value="&lt;font style=&quot;font-size: 14px;&quot;&gt;Instructor&lt;/font&gt;" style="swimlane;fontStyle=1;align=center;verticalAlign=top;childLayout=stackLayout;horizontal=1;startSize=26;horizontalStack=0;resizeParent=1;resizeParentMax=0;resizeLast=0;collapsible=1;marginBottom=0;whiteSpace=wrap;html=1;" vertex="1" parent="A4EMvkAZ6734JRMSgYeZ-61">
          <mxGeometry x="550.7062500000001" y="287.32394366197184" width="215.49375" height="246.2816901408451" as="geometry" />
        </mxCell>
        <mxCell id="A4EMvkAZ6734JRMSgYeZ-18" value="- name: String&lt;div style=&quot;font-size: 14px;&quot;&gt;- courses: ArrayList&amp;lt;string&amp;gt;&lt;/div&gt;&lt;div style=&quot;font-size: 14px;&quot;&gt;- courseID: Int&lt;/div&gt;&lt;div style=&quot;font-size: 14px;&quot;&gt;- studentList: ArrayList&amp;lt;string&amp;gt;&lt;/div&gt;" style="text;strokeColor=none;fillColor=none;align=left;verticalAlign=top;spacingLeft=4;spacingRight=4;overflow=hidden;rotatable=0;points=[[0,0.5],[1,0.5]];portConstraint=eastwest;whiteSpace=wrap;html=1;fontSize=14;" vertex="1" parent="A4EMvkAZ6734JRMSgYeZ-17">
          <mxGeometry y="26" width="215.49375" height="76.61971830985915" as="geometry" />
        </mxCell>
        <mxCell id="A4EMvkAZ6734JRMSgYeZ-19" value="" style="line;strokeWidth=1;fillColor=none;align=left;verticalAlign=middle;spacingTop=-1;spacingLeft=3;spacingRight=3;rotatable=0;labelPosition=right;points=[];portConstraint=eastwest;strokeColor=inherit;" vertex="1" parent="A4EMvkAZ6734JRMSgYeZ-17">
          <mxGeometry y="102.61971830985915" width="215.49375" height="9.577464788732394" as="geometry" />
        </mxCell>
        <mxCell id="A4EMvkAZ6734JRMSgYeZ-20" value="&lt;div style=&quot;font-size: 14px;&quot;&gt;+ uploadCourses()&lt;/div&gt;&lt;div style=&quot;font-size: 14px;&quot;&gt;+ registerStudents()&lt;/div&gt;&lt;div style=&quot;font-size: 14px;&quot;&gt;+ displayStudents()&lt;/div&gt;&lt;div style=&quot;font-size: 14px;&quot;&gt;+ displayCourses()&lt;/div&gt;+ issueCertificates()&lt;div style=&quot;font-size: 14px;&quot;&gt;+ verifyCredits()&lt;/div&gt;&lt;div style=&quot;font-size: 14px;&quot;&gt;+ addCredits()&lt;/div&gt;" style="text;strokeColor=none;fillColor=none;align=left;verticalAlign=top;spacingLeft=4;spacingRight=4;overflow=hidden;rotatable=0;points=[[0,0.5],[1,0.5]];portConstraint=eastwest;whiteSpace=wrap;html=1;fontSize=14;" vertex="1" parent="A4EMvkAZ6734JRMSgYeZ-17">
          <mxGeometry y="112.19718309859155" width="215.49375" height="134.08450704225353" as="geometry" />
        </mxCell>
        <mxCell id="A4EMvkAZ6734JRMSgYeZ-21" value="&lt;font style=&quot;font-size: 14px;&quot;&gt;Administrator&lt;/font&gt;" style="swimlane;fontStyle=1;align=center;verticalAlign=top;childLayout=stackLayout;horizontal=1;startSize=26;horizontalStack=0;resizeParent=1;resizeParentMax=0;resizeLast=0;collapsible=1;marginBottom=0;whiteSpace=wrap;html=1;" vertex="1" parent="A4EMvkAZ6734JRMSgYeZ-61">
          <mxGeometry x="550.7062500000001" y="622.5352112676057" width="215.49375" height="174.45070422535213" as="geometry" />
        </mxCell>
        <mxCell id="A4EMvkAZ6734JRMSgYeZ-22" value="- name: String&lt;div style=&quot;font-size: 14px;&quot;&gt;- adminNo: Int&lt;/div&gt;" style="text;strokeColor=none;fillColor=none;align=left;verticalAlign=top;spacingLeft=4;spacingRight=4;overflow=hidden;rotatable=0;points=[[0,0.5],[1,0.5]];portConstraint=eastwest;whiteSpace=wrap;html=1;fontSize=14;" vertex="1" parent="A4EMvkAZ6734JRMSgYeZ-21">
          <mxGeometry y="26" width="215.49375" height="52.67605633802817" as="geometry" />
        </mxCell>
        <mxCell id="A4EMvkAZ6734JRMSgYeZ-23" value="" style="line;strokeWidth=1;fillColor=none;align=left;verticalAlign=middle;spacingTop=-1;spacingLeft=3;spacingRight=3;rotatable=0;labelPosition=right;points=[];portConstraint=eastwest;strokeColor=inherit;" vertex="1" parent="A4EMvkAZ6734JRMSgYeZ-21">
          <mxGeometry y="78.67605633802816" width="215.49375" height="9.577464788732394" as="geometry" />
        </mxCell>
        <mxCell id="A4EMvkAZ6734JRMSgYeZ-24" value="&lt;div style=&quot;font-size: 14px;&quot;&gt;&lt;/div&gt;&lt;div style=&quot;font-size: 14px;&quot;&gt;+ verifyCredits()&lt;/div&gt;&lt;div style=&quot;font-size: 14px;&quot;&gt;+ reportIssues()&lt;/div&gt;&lt;div style=&quot;font-size: 14px;&quot;&gt;+ viewColleges()&lt;/div&gt;&lt;div style=&quot;font-size: 14px;&quot;&gt;+ viewCourses()&lt;/div&gt;" style="text;strokeColor=none;fillColor=none;align=left;verticalAlign=top;spacingLeft=4;spacingRight=4;overflow=hidden;rotatable=0;points=[[0,0.5],[1,0.5]];portConstraint=eastwest;whiteSpace=wrap;html=1;fontSize=14;" vertex="1" parent="A4EMvkAZ6734JRMSgYeZ-21">
          <mxGeometry y="88.25352112676056" width="215.49375" height="86.19718309859155" as="geometry" />
        </mxCell>
        <mxCell id="A4EMvkAZ6734JRMSgYeZ-25" value="&lt;font style=&quot;font-size: 14px;&quot;&gt;Courses&lt;/font&gt;" style="swimlane;fontStyle=1;align=center;verticalAlign=top;childLayout=stackLayout;horizontal=1;startSize=26;horizontalStack=0;resizeParent=1;resizeParentMax=0;resizeLast=0;collapsible=1;marginBottom=0;whiteSpace=wrap;html=1;" vertex="1" parent="A4EMvkAZ6734JRMSgYeZ-61">
          <mxGeometry y="622.5352112676057" width="215.49375" height="222.33802816901408" as="geometry" />
        </mxCell>
        <mxCell id="A4EMvkAZ6734JRMSgYeZ-26" value="- courseName: String&lt;div style=&quot;font-size: 14px;&quot;&gt;- courseID: Int&lt;/div&gt;&lt;div style=&quot;font-size: 14px;&quot;&gt;- courseDetails: String&lt;/div&gt;" style="text;strokeColor=none;fillColor=none;align=left;verticalAlign=top;spacingLeft=4;spacingRight=4;overflow=hidden;rotatable=0;points=[[0,0.5],[1,0.5]];portConstraint=eastwest;whiteSpace=wrap;html=1;fontSize=14;" vertex="1" parent="A4EMvkAZ6734JRMSgYeZ-25">
          <mxGeometry y="26" width="215.49375" height="64.64788732394366" as="geometry" />
        </mxCell>
        <mxCell id="A4EMvkAZ6734JRMSgYeZ-27" value="" style="line;strokeWidth=1;fillColor=none;align=left;verticalAlign=middle;spacingTop=-1;spacingLeft=3;spacingRight=3;rotatable=0;labelPosition=right;points=[];portConstraint=eastwest;strokeColor=inherit;" vertex="1" parent="A4EMvkAZ6734JRMSgYeZ-25">
          <mxGeometry y="90.64788732394366" width="215.49375" height="9.577464788732394" as="geometry" />
        </mxCell>
        <mxCell id="A4EMvkAZ6734JRMSgYeZ-28" value="&lt;div style=&quot;font-size: 14px;&quot;&gt;+ uploadCourses()&lt;/div&gt;&lt;div style=&quot;font-size: 14px;&quot;&gt;+ enrollCourses()&lt;/div&gt;+ displayCourses()&lt;div style=&quot;font-size: 14px;&quot;&gt;+ displayCourseDetails()&lt;br style=&quot;font-size: 14px;&quot;&gt;&lt;div style=&quot;font-size: 14px;&quot;&gt;+ displayCredits()&lt;/div&gt;&lt;div style=&quot;font-size: 14px;&quot;&gt;+ displayCertificate&lt;/div&gt;&lt;/div&gt;" style="text;strokeColor=none;fillColor=none;align=left;verticalAlign=top;spacingLeft=4;spacingRight=4;overflow=hidden;rotatable=0;points=[[0,0.5],[1,0.5]];portConstraint=eastwest;whiteSpace=wrap;html=1;fontSize=14;" vertex="1" parent="A4EMvkAZ6734JRMSgYeZ-25">
          <mxGeometry y="100.22535211267606" width="215.49375" height="122.11267605633803" as="geometry" />
        </mxCell>
        <mxCell id="A4EMvkAZ6734JRMSgYeZ-29" value="" style="endArrow=none;html=1;edgeStyle=orthogonalEdgeStyle;rounded=0;exitX=1;exitY=0.5;exitDx=0;exitDy=0;" edge="1" parent="A4EMvkAZ6734JRMSgYeZ-61" source="A4EMvkAZ6734JRMSgYeZ-14">
          <mxGeometry relative="1" as="geometry">
            <mxPoint x="179.57812500000003" y="113.73239436619717" as="sourcePoint" />
            <mxPoint x="311.26875000000007" y="65.8450704225352" as="targetPoint" />
            <Array as="points">
              <mxPoint x="203.521875" y="65.8450704225352" />
              <mxPoint x="311.26875000000007" y="65.8450704225352" />
            </Array>
          </mxGeometry>
        </mxCell>
        <mxCell id="A4EMvkAZ6734JRMSgYeZ-30" value="1" style="edgeLabel;resizable=0;align=left;verticalAlign=bottom;labelBackgroundColor=none;" connectable="0" vertex="1" parent="A4EMvkAZ6734JRMSgYeZ-29">
          <mxGeometry x="-1" relative="1" as="geometry">
            <mxPoint y="-3" as="offset" />
          </mxGeometry>
        </mxCell>
        <mxCell id="A4EMvkAZ6734JRMSgYeZ-31" value="1" style="edgeLabel;resizable=0;align=right;verticalAlign=bottom;labelBackgroundColor=none;horizontal=1;" connectable="0" vertex="1" parent="A4EMvkAZ6734JRMSgYeZ-29">
          <mxGeometry x="1" relative="1" as="geometry">
            <mxPoint y="-3" as="offset" />
          </mxGeometry>
        </mxCell>
        <mxCell id="A4EMvkAZ6734JRMSgYeZ-32" value="" style="endArrow=none;html=1;edgeStyle=orthogonalEdgeStyle;rounded=0;exitX=0.5;exitY=1;exitDx=0;exitDy=0;entryX=0.5;entryY=0;entryDx=0;entryDy=0;" edge="1" parent="A4EMvkAZ6734JRMSgYeZ-61" source="A4EMvkAZ6734JRMSgYeZ-13" target="A4EMvkAZ6734JRMSgYeZ-9">
          <mxGeometry relative="1" as="geometry">
            <mxPoint x="251.409375" y="213.0985915492958" as="sourcePoint" />
            <mxPoint x="359.15625000000006" y="213.0985915492958" as="targetPoint" />
            <Array as="points">
              <mxPoint x="107.746875" y="275.3521126760563" />
            </Array>
          </mxGeometry>
        </mxCell>
        <mxCell id="A4EMvkAZ6734JRMSgYeZ-33" value="1" style="edgeLabel;resizable=0;align=left;verticalAlign=bottom;labelBackgroundColor=none;" connectable="0" vertex="1" parent="A4EMvkAZ6734JRMSgYeZ-32">
          <mxGeometry x="-1" relative="1" as="geometry">
            <mxPoint y="21" as="offset" />
          </mxGeometry>
        </mxCell>
        <mxCell id="A4EMvkAZ6734JRMSgYeZ-34" value="1..." style="edgeLabel;resizable=0;align=right;verticalAlign=bottom;labelBackgroundColor=none;horizontal=1;" connectable="0" vertex="1" parent="A4EMvkAZ6734JRMSgYeZ-32">
          <mxGeometry x="1" relative="1" as="geometry">
            <mxPoint y="-3" as="offset" />
          </mxGeometry>
        </mxCell>
        <mxCell id="A4EMvkAZ6734JRMSgYeZ-35" value="" style="endArrow=none;html=1;rounded=0;exitX=0.251;exitY=0.986;exitDx=0;exitDy=0;entryX=0.75;entryY=0;entryDx=0;entryDy=0;exitPerimeter=0;edgeStyle=orthogonalEdgeStyle;" edge="1" parent="A4EMvkAZ6734JRMSgYeZ-61" source="A4EMvkAZ6734JRMSgYeZ-4" target="A4EMvkAZ6734JRMSgYeZ-9">
          <mxGeometry relative="1" as="geometry">
            <mxPoint x="119.71875" y="160.4225352112676" as="sourcePoint" />
            <mxPoint x="119.71875" y="287.32394366197184" as="targetPoint" />
            <Array as="points">
              <mxPoint x="359.15625000000006" y="197.53521126760566" />
              <mxPoint x="161.62031250000004" y="197.53521126760566" />
            </Array>
          </mxGeometry>
        </mxCell>
        <mxCell id="A4EMvkAZ6734JRMSgYeZ-36" value="1" style="edgeLabel;resizable=0;align=left;verticalAlign=bottom;labelBackgroundColor=none;" connectable="0" vertex="1" parent="A4EMvkAZ6734JRMSgYeZ-35">
          <mxGeometry x="-1" relative="1" as="geometry">
            <mxPoint y="21" as="offset" />
          </mxGeometry>
        </mxCell>
        <mxCell id="A4EMvkAZ6734JRMSgYeZ-37" value="1..." style="edgeLabel;resizable=0;align=right;verticalAlign=bottom;labelBackgroundColor=none;horizontal=1;" connectable="0" vertex="1" parent="A4EMvkAZ6734JRMSgYeZ-35">
          <mxGeometry x="1" relative="1" as="geometry">
            <mxPoint y="-3" as="offset" />
          </mxGeometry>
        </mxCell>
        <mxCell id="A4EMvkAZ6734JRMSgYeZ-38" value="" style="endArrow=none;html=1;rounded=0;exitX=0.497;exitY=1.008;exitDx=0;exitDy=0;entryX=0.25;entryY=0;entryDx=0;entryDy=0;exitPerimeter=0;edgeStyle=orthogonalEdgeStyle;" edge="1" parent="A4EMvkAZ6734JRMSgYeZ-61" source="A4EMvkAZ6734JRMSgYeZ-4" target="A4EMvkAZ6734JRMSgYeZ-21">
          <mxGeometry relative="1" as="geometry">
            <mxPoint x="371.12812500000007" y="148.4507042253521" as="sourcePoint" />
            <mxPoint x="173.59218750000002" y="287.32394366197184" as="targetPoint" />
            <Array as="points">
              <mxPoint x="407.04375" y="580.6338028169014" />
              <mxPoint x="604.5796875000001" y="580.6338028169014" />
            </Array>
          </mxGeometry>
        </mxCell>
        <mxCell id="A4EMvkAZ6734JRMSgYeZ-39" value="1" style="edgeLabel;resizable=0;align=left;verticalAlign=bottom;labelBackgroundColor=none;" connectable="0" vertex="1" parent="A4EMvkAZ6734JRMSgYeZ-38">
          <mxGeometry x="-1" relative="1" as="geometry">
            <mxPoint x="-10" y="21" as="offset" />
          </mxGeometry>
        </mxCell>
        <mxCell id="A4EMvkAZ6734JRMSgYeZ-40" value="1..." style="edgeLabel;resizable=0;align=right;verticalAlign=bottom;labelBackgroundColor=none;horizontal=1;" connectable="0" vertex="1" parent="A4EMvkAZ6734JRMSgYeZ-38">
          <mxGeometry x="1" relative="1" as="geometry">
            <mxPoint y="-3" as="offset" />
          </mxGeometry>
        </mxCell>
        <mxCell id="A4EMvkAZ6734JRMSgYeZ-41" value="" style="endArrow=none;html=1;rounded=0;exitX=0.751;exitY=1.003;exitDx=0;exitDy=0;entryX=0.25;entryY=0;entryDx=0;entryDy=0;exitPerimeter=0;edgeStyle=orthogonalEdgeStyle;" edge="1" parent="A4EMvkAZ6734JRMSgYeZ-61" source="A4EMvkAZ6734JRMSgYeZ-4" target="A4EMvkAZ6734JRMSgYeZ-17">
          <mxGeometry relative="1" as="geometry">
            <mxPoint x="383.1000000000001" y="160.4225352112676" as="sourcePoint" />
            <mxPoint x="185.56406250000003" y="299.29577464788736" as="targetPoint" />
            <Array as="points">
              <mxPoint x="454.93125000000003" y="221.47887323943664" />
              <mxPoint x="604.5796875000001" y="221.47887323943664" />
            </Array>
          </mxGeometry>
        </mxCell>
        <mxCell id="A4EMvkAZ6734JRMSgYeZ-42" value="1" style="edgeLabel;resizable=0;align=left;verticalAlign=bottom;labelBackgroundColor=none;" connectable="0" vertex="1" parent="A4EMvkAZ6734JRMSgYeZ-41">
          <mxGeometry x="-1" relative="1" as="geometry">
            <mxPoint y="21" as="offset" />
          </mxGeometry>
        </mxCell>
        <mxCell id="A4EMvkAZ6734JRMSgYeZ-43" value="1..." style="edgeLabel;resizable=0;align=right;verticalAlign=bottom;labelBackgroundColor=none;horizontal=1;" connectable="0" vertex="1" parent="A4EMvkAZ6734JRMSgYeZ-41">
          <mxGeometry x="1" relative="1" as="geometry">
            <mxPoint y="-3" as="offset" />
          </mxGeometry>
        </mxCell>
        <mxCell id="A4EMvkAZ6734JRMSgYeZ-44" value="" style="endArrow=none;html=1;rounded=0;exitX=0.498;exitY=0.999;exitDx=0;exitDy=0;exitPerimeter=0;" edge="1" parent="A4EMvkAZ6734JRMSgYeZ-61" source="A4EMvkAZ6734JRMSgYeZ-8" target="A4EMvkAZ6734JRMSgYeZ-17">
          <mxGeometry relative="1" as="geometry">
            <mxPoint x="395.07187500000003" y="172.3943661971831" as="sourcePoint" />
            <mxPoint x="197.53593750000002" y="311.2676056338029" as="targetPoint" />
          </mxGeometry>
        </mxCell>
        <mxCell id="A4EMvkAZ6734JRMSgYeZ-45" value="1..." style="edgeLabel;resizable=0;align=left;verticalAlign=bottom;labelBackgroundColor=none;" connectable="0" vertex="1" parent="A4EMvkAZ6734JRMSgYeZ-44">
          <mxGeometry x="-1" relative="1" as="geometry">
            <mxPoint y="21" as="offset" />
          </mxGeometry>
        </mxCell>
        <mxCell id="A4EMvkAZ6734JRMSgYeZ-46" value="1" style="edgeLabel;resizable=0;align=right;verticalAlign=bottom;labelBackgroundColor=none;horizontal=1;" connectable="0" vertex="1" parent="A4EMvkAZ6734JRMSgYeZ-44">
          <mxGeometry x="1" relative="1" as="geometry">
            <mxPoint y="-3" as="offset" />
          </mxGeometry>
        </mxCell>
        <mxCell id="A4EMvkAZ6734JRMSgYeZ-47" value="" style="endArrow=none;html=1;rounded=0;exitX=1;exitY=0.916;exitDx=0;exitDy=0;entryX=0;entryY=0.5;entryDx=0;entryDy=0;exitPerimeter=0;edgeStyle=orthogonalEdgeStyle;" edge="1" parent="A4EMvkAZ6734JRMSgYeZ-61" source="A4EMvkAZ6734JRMSgYeZ-14" target="A4EMvkAZ6734JRMSgYeZ-18">
          <mxGeometry relative="1" as="geometry">
            <mxPoint x="466.90312500000005" y="148.4507042253521" as="sourcePoint" />
            <mxPoint x="616.5515625" y="299.29577464788736" as="targetPoint" />
            <Array as="points">
              <mxPoint x="263.38125" y="101.76056338028171" />
              <mxPoint x="263.38125" y="356.76056338028167" />
            </Array>
          </mxGeometry>
        </mxCell>
        <mxCell id="A4EMvkAZ6734JRMSgYeZ-48" value="1" style="edgeLabel;resizable=0;align=left;verticalAlign=bottom;labelBackgroundColor=none;" connectable="0" vertex="1" parent="A4EMvkAZ6734JRMSgYeZ-47">
          <mxGeometry x="-1" relative="1" as="geometry">
            <mxPoint y="21" as="offset" />
          </mxGeometry>
        </mxCell>
        <mxCell id="A4EMvkAZ6734JRMSgYeZ-49" value="1..." style="edgeLabel;resizable=0;align=right;verticalAlign=bottom;labelBackgroundColor=none;horizontal=1;" connectable="0" vertex="1" parent="A4EMvkAZ6734JRMSgYeZ-47">
          <mxGeometry x="1" relative="1" as="geometry">
            <mxPoint y="-3" as="offset" />
          </mxGeometry>
        </mxCell>
        <mxCell id="A4EMvkAZ6734JRMSgYeZ-50" value="" style="endArrow=none;html=1;rounded=0;exitX=0.497;exitY=1.005;exitDx=0;exitDy=0;entryX=0.5;entryY=0;entryDx=0;entryDy=0;exitPerimeter=0;" edge="1" parent="A4EMvkAZ6734JRMSgYeZ-61" source="A4EMvkAZ6734JRMSgYeZ-20" target="A4EMvkAZ6734JRMSgYeZ-21">
          <mxGeometry relative="1" as="geometry">
            <mxPoint x="658.4531250000001" y="544.7183098591549" as="sourcePoint" />
            <mxPoint x="808.1015625000001" y="695.5633802816901" as="targetPoint" />
          </mxGeometry>
        </mxCell>
        <mxCell id="A4EMvkAZ6734JRMSgYeZ-51" value="1..." style="edgeLabel;resizable=0;align=left;verticalAlign=bottom;labelBackgroundColor=none;" connectable="0" vertex="1" parent="A4EMvkAZ6734JRMSgYeZ-50">
          <mxGeometry x="-1" relative="1" as="geometry">
            <mxPoint y="14" as="offset" />
          </mxGeometry>
        </mxCell>
        <mxCell id="A4EMvkAZ6734JRMSgYeZ-52" value="1" style="edgeLabel;resizable=0;align=right;verticalAlign=bottom;labelBackgroundColor=none;horizontal=1;" connectable="0" vertex="1" parent="A4EMvkAZ6734JRMSgYeZ-50">
          <mxGeometry x="1" relative="1" as="geometry">
            <mxPoint y="-3" as="offset" />
          </mxGeometry>
        </mxCell>
        <mxCell id="A4EMvkAZ6734JRMSgYeZ-55" value="" style="endArrow=none;html=1;rounded=0;exitX=0.497;exitY=1.005;exitDx=0;exitDy=0;exitPerimeter=0;entryX=0.5;entryY=0;entryDx=0;entryDy=0;" edge="1" parent="A4EMvkAZ6734JRMSgYeZ-61" target="A4EMvkAZ6734JRMSgYeZ-25">
          <mxGeometry relative="1" as="geometry">
            <mxPoint x="107.14828125000001" y="550.7042253521126" as="sourcePoint" />
            <mxPoint x="107.746875" y="616.5492957746478" as="targetPoint" />
          </mxGeometry>
        </mxCell>
        <mxCell id="A4EMvkAZ6734JRMSgYeZ-56" value="1..." style="edgeLabel;resizable=0;align=left;verticalAlign=bottom;labelBackgroundColor=none;" connectable="0" vertex="1" parent="A4EMvkAZ6734JRMSgYeZ-55">
          <mxGeometry x="-1" relative="1" as="geometry">
            <mxPoint y="14" as="offset" />
          </mxGeometry>
        </mxCell>
        <mxCell id="A4EMvkAZ6734JRMSgYeZ-57" value="1..." style="edgeLabel;resizable=0;align=right;verticalAlign=bottom;labelBackgroundColor=none;horizontal=1;" connectable="0" vertex="1" parent="A4EMvkAZ6734JRMSgYeZ-55">
          <mxGeometry x="1" relative="1" as="geometry">
            <mxPoint y="-3" as="offset" />
          </mxGeometry>
        </mxCell>
        <mxCell id="A4EMvkAZ6734JRMSgYeZ-58" value="" style="endArrow=none;html=1;rounded=0;exitX=-0.001;exitY=0.091;exitDx=0;exitDy=0;exitPerimeter=0;edgeStyle=orthogonalEdgeStyle;" edge="1" parent="A4EMvkAZ6734JRMSgYeZ-61" source="A4EMvkAZ6734JRMSgYeZ-20">
          <mxGeometry relative="1" as="geometry">
            <mxPoint x="550.7062500000001" y="401.056338028169" as="sourcePoint" />
            <mxPoint x="215.49375" y="736.2676056338028" as="targetPoint" />
            <Array as="points">
              <mxPoint x="359.15625000000006" y="416.6197183098591" />
              <mxPoint x="359.15625000000006" y="736.2676056338028" />
              <mxPoint x="215.49375" y="736.2676056338028" />
            </Array>
          </mxGeometry>
        </mxCell>
        <mxCell id="A4EMvkAZ6734JRMSgYeZ-59" value="1..." style="edgeLabel;resizable=0;align=left;verticalAlign=bottom;labelBackgroundColor=none;" connectable="0" vertex="1" parent="A4EMvkAZ6734JRMSgYeZ-58">
          <mxGeometry x="-1" relative="1" as="geometry">
            <mxPoint x="-20" y="-3" as="offset" />
          </mxGeometry>
        </mxCell>
        <mxCell id="A4EMvkAZ6734JRMSgYeZ-60" value="1..." style="edgeLabel;resizable=0;align=right;verticalAlign=bottom;labelBackgroundColor=none;horizontal=1;" connectable="0" vertex="1" parent="A4EMvkAZ6734JRMSgYeZ-58">
          <mxGeometry x="1" relative="1" as="geometry">
            <mxPoint x="20" as="offset" />
          </mxGeometry>
        </mxCell>
        <mxCell id="A4EMvkAZ6734JRMSgYeZ-63" value="Learning Management System - Class Diagram" style="text;align=center;fontStyle=1;verticalAlign=middle;spacingLeft=3;spacingRight=3;strokeColor=none;rotatable=0;points=[[0,0.5],[1,0.5]];portConstraint=eastwest;html=1;fontSize=19;" vertex="1" parent="A4EMvkAZ6734JRMSgYeZ-64">
          <mxGeometry x="202" width="335" height="30" as="geometry" />
        </mxCell>
      </root>
    </mxGraphModel>
  </diagram>
</mxfile>
